<svg xmlns="http://www.w3.org/2000/svg" width="170.654" height="48.854" viewBox="0 0 170.654 48.854">
  <defs>
    <style>
      .cls-1 {
        fill: #fff;
      }

      .cls-2 {
        fill: #d61428;
      }
    </style>
  </defs>
  <g id="组_385" data-name="组 385" transform="translate(-434.646 -71.812)">
    <g id="组_384" data-name="组 384">
      <g id="组_383" data-name="组 383">
        <path id="路径_356" data-name="路径 356" class="cls-1" d="M566.193,95.48H560.08v-23.1h6.113v9.238h12.364V72.383h6.116v23.1h-6.116V85.316c0,.029-12.364,0-12.364,0V95.48Z"/>
        <path id="路径_357" data-name="路径 357" class="cls-1" d="M508.132,72.383c.014.071,0,3.93,0,3.93h-9.339V95.48h-6.128V76.313h-9.341v-3.93c0,.013,24.808,0,24.808,0Z"/>
        <path id="路径_358" data-name="路径 358" class="cls-1" d="M531.911,95.48H525.1c.018,0-2-4.966-2-4.966H511.636s-1.966,4.966-2,4.966h-6.8l10.786-23.1c0,.02,7.5,0,7.5,0l10.789,23.1M517.377,76.313l-4.277,10.5h8.538l-4.261-10.5"/>
        <path id="路径_359" data-name="路径 359" class="cls-1" d="M589.519,95.48v-23.1h6.115v23.1Z"/>
        <path id="路径_360" data-name="路径 360" class="cls-1" d="M464.036,72.383h6.129v23.1h-6.129V85.316c0,.029-12.344,0-12.344,0V95.48h-6.123v-23.1h6.123v9.238h12.344V72.383Z"/>
        <path id="路径_361" data-name="路径 361" class="cls-1" d="M475.013,95.48v-23.1h6.113v23.1Z"/>
        <path id="路径_362" data-name="路径 362" class="cls-1" d="M531.706,89.08a14.914,14.914,0,0,1-.829-4.923,13.116,13.116,0,0,1,1.592-6.722,10.332,10.332,0,0,1,5.255-4.4,19.164,19.164,0,0,1,6.767-1.227,19.488,19.488,0,0,1,7.734,1.624,7.55,7.55,0,0,1,4.362,5.335,13.34,13.34,0,0,1,.209,1.459h-6.42a5.34,5.34,0,0,0-.328-1.767,4.449,4.449,0,0,0-2.876-2.677,9.422,9.422,0,0,0-2.681-.389,9.138,9.138,0,0,0-3.02.515,5.5,5.5,0,0,0-3.34,3.379,14.416,14.416,0,0,0-.827,4.866,15.089,15.089,0,0,0,.564,4.054,5.515,5.515,0,0,0,3.355,3.65,9.049,9.049,0,0,0,3.268.61,9.492,9.492,0,0,0,2.832-.435,4.433,4.433,0,0,0,2.682-2.4,6.042,6.042,0,0,0,.5-2.474h6.441a10.7,10.7,0,0,1-.311,2.19,7.379,7.379,0,0,1-4.276,5.085,20.085,20.085,0,0,1-7.869,1.611,20.435,20.435,0,0,1-6.205-.967,9.985,9.985,0,0,1-6.58-6Z"/>
      </g>
      <path id="路径_363" data-name="路径 363" class="cls-1" d="M440.1,101.935l-5.45.5v.809l.171.022c2.2.257,2.2.257,2.2,1.838v11.421h3.29v-14.6l-.21.014Z"/>
      <path id="路径_364" data-name="路径 364" class="cls-1" d="M451.663,106.254a4.553,4.553,0,0,0-3.81,2.209v-2.244l-.225.039-4.423.7v.767l.19,0c1.4.028,1.7.331,1.7,1.651v7.145h2.758v-5.258c0-1.408,1.314-3.207,2.71-3.207,1.323,0,1.388,1.1,1.388,2.9v5.563h2.762v-7.145a2.787,2.787,0,0,0-3.05-3.124Z"/>
      <path id="路径_365" data-name="路径 365" class="cls-1" d="M462.433,110.24c-1.093-.527-2.025-.991-2.025-1.733,0-.85,1.018-.949,1.459-.949a5.059,5.059,0,0,1,2.577.891l.437.262v-2.057l-.345-.091a12.317,12.317,0,0,0-2.5-.309c-2.584,0-4.14,1.114-4.14,2.984,0,1.672,1.607,2.463,3.033,3.16,1.1.538,2.137,1.049,2.137,1.858,0,.765-.673,1.19-1.828,1.19A6,6,0,0,1,458.2,114.4l-.293-.177v2.111l.206.048a12.357,12.357,0,0,0,3.02.364c2.79,0,4.453-1.14,4.453-3.056,0-1.886-1.68-2.719-3.156-3.451Z"/>
      <path id="路径_366" data-name="路径 366" class="cls-1" d="M474.538,106.254a4.034,4.034,0,0,0-2.89,1.417v-1.452l-.229.039-4.4.7v.767l.189,0c1.374.028,1.654.315,1.654,1.651v11.288h2.75v-5.089a3.406,3.406,0,0,0,2.837,1.17c2.878,0,4.407-1.861,4.407-5.4,0-3.235-1.571-5.09-4.321-5.09m-.777,1.517c1.876,0,2.109,2.044,2.109,3.573,0,2.626-.691,3.891-2.079,3.891-1.8,0-2.176-1.667-2.176-3.075v-.853c0-1.067.21-3.536,2.146-3.536Z"/>
      <path id="路径_367" data-name="路径 367" class="cls-1" d="M480.789,106.955v.767l.18,0c1.366.028,1.633.315,1.633,1.651v7.145h2.754v-10.3l-.217.039-4.35.7Z"/>
      <path id="路径_368" data-name="路径 368" class="cls-1" d="M484.009,105a1.625,1.625,0,0,0,1.724-1.507A1.7,1.7,0,1,0,484.009,105Z"/>
      <path id="路径_369" data-name="路径 369" class="cls-1" d="M496.9,108.53v-2.146l-.166-.027a8.83,8.83,0,0,0-1.308-.1,3.1,3.1,0,0,0-2.8,2.035v-2.07l-.237.039-4.389.7v.767l.186,0c1.394.028,1.672.315,1.672,1.651v7.145h2.768v-5.147a2.648,2.648,0,0,1,2.868-2.908,3.682,3.682,0,0,1,.955.185l.45.136v-.259Z"/>
      <path id="路径_370" data-name="路径 370" class="cls-1" d="M507.813,110.416c0-2.759-1.546-4.162-4.579-4.162-3.429,0-5.163,1.652-5.163,4.915,0,3.491,2.238,5.578,5.994,5.578a10.793,10.793,0,0,0,3.364-.558l.159-.056V114.8l-.266.107a6.7,6.7,0,0,1-2.148.329c-2.948,0-4.04-2.438-4.113-4.626h6.752v-.193m-4.679-3.07c1.481,0,1.865,1.075,1.9,2.045h-3.967a2.089,2.089,0,0,1,2.062-2.045Z"/>
      <path id="路径_371" data-name="路径 371" class="cls-1" d="M532.925,106.254a4.385,4.385,0,0,0-3.773,2.2v-6.869l-.226.021-4.379.541v.776l.182.009c1.372.057,1.66.354,1.66,1.69v11.9h2.763v-5.14c0-1.866,1.388-3.325,2.589-3.325,1.541,0,1.541,1.151,1.541,2.17v6.3h2.742v-6.606c0-1.1,0-3.663-3.1-3.663Z"/>
      <path id="路径_372" data-name="路径 372" class="cls-1" d="M548.425,110.416c0-2.759-1.547-4.162-4.569-4.162-3.434,0-5.175,1.652-5.175,4.915,0,3.491,2.244,5.578,5.994,5.578a10.83,10.83,0,0,0,3.37-.558l.165-.056V114.8l-.267.107a6.822,6.822,0,0,1-2.152.329c-2.938,0-4.046-2.438-4.1-4.626h6.736v-.193m-4.667-3.07c1.48,0,1.853,1.075,1.9,2.045h-3.971a2.085,2.085,0,0,1,2.069-2.045Z"/>
      <path id="路径_373" data-name="路径 373" class="cls-1" d="M517.475,103.362v3.121h-1.844v1.228h1.844v6.173c0,2.659,1.714,2.867,3.8,2.867a9.454,9.454,0,0,0,1.607-.168l.164-.017v-1.242l-.23.052a3.751,3.751,0,0,1-.835.074c-1.653,0-1.749-.484-1.749-1.9v-5.841h3.111v-1.228h-3.111v-3.121Z"/>
      <path id="路径_374" data-name="路径 374" class="cls-1" d="M571.726,102.173h-2.765v10.9c-.579-.862-7.2-10.9-7.2-10.9h-6.368v.806l.559.1c1.668.277,1.806.309,1.806,1.949v11.5h2.955V105.1c.575.867,7.551,11.423,7.551,11.423h3.653v-14.35Z"/>
      <path id="路径_375" data-name="路径 375" class="cls-1" d="M584.252,110.426c0-2.765-1.546-4.168-4.569-4.168-3.435,0-5.173,1.648-5.173,4.918,0,3.49,2.241,5.575,6,5.575a10.87,10.87,0,0,0,3.36-.548l.171-.054v-1.342l-.261.1a6.994,6.994,0,0,1-2.169.341c-2.942,0-4.039-2.453-4.1-4.629h6.742v-.195m-4.663-3.073c1.475,0,1.845,1.071,1.892,2.042h-3.963a2.076,2.076,0,0,1,2.071-2.042Z"/>
      <path id="路径_376" data-name="路径 376" class="cls-1" d="M599.45,103.352v3.131h-1.859v1.228h1.859v6.173c0,2.659,1.717,2.867,3.784,2.867a9.516,9.516,0,0,0,1.619-.168l.157-.017v-1.242l-.229.052a3.768,3.768,0,0,1-.838.074c-1.648,0-1.741-.484-1.741-1.9v-5.841h3.1v-1.228h-3.1v-3.131Z"/>
      <path id="路径_377" data-name="路径 377" class="cls-1" d="M593.893,109.755l2.832-3.272h-2.907l-2.7,3.107-2.372-3.107h-4.216v.8l.189.012a2.816,2.816,0,0,1,2.638,1.522l1.728,2.3-2.817,3.259h2.909l1.268-1.461,2.716,3.623h3.273l-5.187-6.783Z"/>
      <path id="路径_378" data-name="路径 378" class="cls-2" d="M599.405,103.352H596.5l3.522-4.063h2.918l-3.531,4.063Z"/>
    </g>
  </g>
</svg>
