<svg xmlns="http://www.w3.org/2000/svg" width="35.092" height="35.092" viewBox="0 0 35.092 35.092">
  <path id="路径_57" data-name="路径 57" d="M-2896.914-1916.4a17.546,17.546,0,0,0-17.545,17.546,17.546,17.546,0,0,0,17.545,17.546,17.547,17.547,0,0,0,17.547-17.546A17.547,17.547,0,0,0-2896.914-1916.4Zm7.286,19.734h-9.473v-11.851a1.189,1.189,0,0,1,1.189-1.188,1.188,1.188,0,0,1,1.188,1.188v9.474h7.1a1.188,1.188,0,0,1,1.189,1.188A1.189,1.189,0,0,1-2889.628-1896.666Z" transform="translate(2914.459 1916.399)" fill="#095d6d"/>
</svg>
