<svg xmlns="http://www.w3.org/2000/svg" width="29.566" height="39.091" viewBox="0 0 29.566 39.091">
  <path id="路径_45" data-name="路径 45" d="M-1384.966,778.123a14.783,14.783,0,0,0-14.783,14.783,14.709,14.709,0,0,0,2.405,8.083c.417.637,12.379,16.226,12.379,16.226s11.96-15.589,12.377-16.226a14.708,14.708,0,0,0,2.4-8.083A14.783,14.783,0,0,0-1384.966,778.123Zm0,21.093a6.31,6.31,0,0,1-6.31-6.31,6.31,6.31,0,0,1,6.31-6.31,6.31,6.31,0,0,1,6.31,6.31A6.31,6.31,0,0,1-1384.966,799.216Z" transform="translate(1399.749 -778.123)" fill="#095d6d"/>
</svg>
