<svg xmlns="http://www.w3.org/2000/svg" width="30" height="25.004" viewBox="0 0 30 25.004">
  <path id="联合_22" data-name="联合 22" d="M18-161.5a3.5,3.5,0,0,1,3.5-3.5,3.5,3.5,0,0,1,3.5,3.5,3.5,3.5,0,0,1-3.5,3.5A3.5,3.5,0,0,1,18-161.5ZM29.5-159a2.5,2.5,0,0,1-2.5-2.5,2.5,2.5,0,0,1,2.5-2.5h16a2.5,2.5,0,0,1,2.5,2.5,2.5,2.5,0,0,1-2.5,2.5ZM18-170.5a3.5,3.5,0,0,1,3.5-3.5,3.5,3.5,0,0,1,3.5,3.5,3.5,3.5,0,0,1-3.5,3.5A3.5,3.5,0,0,1,18-170.5ZM29.5-168a2.5,2.5,0,0,1-2.5-2.5,2.5,2.5,0,0,1,2.5-2.5h16a2.5,2.5,0,0,1,2.5,2.5,2.5,2.5,0,0,1-2.5,2.5ZM18-179.5a3.5,3.5,0,0,1,3.5-3.5,3.5,3.5,0,0,1,3.5,3.5,3.5,3.5,0,0,1-3.5,3.5A3.5,3.5,0,0,1,18-179.5ZM29.5-177a2.5,2.5,0,0,1-2.5-2.5,2.5,2.5,0,0,1,2.5-2.5h16a2.5,2.5,0,0,1,2.5,2.5,2.5,2.5,0,0,1-2.5,2.5Z" transform="translate(-18.002 183.001)" fill="#25ada8"/>
</svg>
