<svg xmlns="http://www.w3.org/2000/svg" width="30.887" height="28.456" viewBox="0 0 30.887 28.456">
  <path id="减去_24" data-name="减去 24" d="M24.387,28.456H6.5a6.507,6.507,0,0,1-6.5-6.5v-8.6A6.5,6.5,0,0,1,5.079,7.009V0l8.1,6.853h11.2a6.507,6.507,0,0,1,6.5,6.5v8.6A6.507,6.507,0,0,1,24.387,28.456ZM23.263,15.34a2.122,2.122,0,1,0,2.15,2.122A2.139,2.139,0,0,0,23.263,15.34Zm-7.819,0a2.122,2.122,0,1,0,2.15,2.122A2.139,2.139,0,0,0,15.444,15.34Zm-7.82,0a2.122,2.122,0,1,0,2.15,2.122A2.139,2.139,0,0,0,7.624,15.34Z" transform="translate(30.887 28.456) rotate(180)" fill="#999"/>
</svg>
