<svg xmlns="http://www.w3.org/2000/svg" width="182.024" height="184.044" viewBox="0 0 182.024 184.044">
  <g id="组_421" data-name="组 421" transform="translate(0.75 0.75)">
    <g id="组_247" data-name="组 247" transform="translate(0 0)">
      <g id="组_246" data-name="组 246">
        <path id="路径_187" data-name="路径 187" d="M-414.335-574.416h-.4v0Z" transform="translate(519.566 606.348)" fill="none" stroke="#fff" stroke-miterlimit="10" stroke-width="0.5" style="isolation: isolate"/>
        <path id="路径_188" data-name="路径 188" d="M-528.511-398.4h-6.927v35.9h65.164A65.168,65.168,0,0,1-528.511-398.4Z" transform="translate(575.509 524.771)" fill="none" stroke="#fff" stroke-miterlimit="10" stroke-width="0.5" style="isolation: isolate"/>
        <path id="路径_189" data-name="路径 189" d="M-413.983-331.483h0Z" transform="translate(519.219 493.756)" fill="none" stroke="#fff" stroke-miterlimit="10" stroke-width="0.5" style="isolation: isolate"/>
        <path id="路径_190" data-name="路径 190" d="M-413.98-574.416h0Z" transform="translate(519.222 606.348)" fill="none" stroke="#fff" stroke-miterlimit="10" stroke-width="0.5" style="isolation: isolate"/>
        <path id="路径_191" data-name="路径 191" d="M-414.324-568.876v-5.54h-.01l-.4,0A37.777,37.777,0,0,1-414.324-568.876Z" transform="translate(519.566 606.348)" fill="none" stroke="#fff" stroke-miterlimit="10" stroke-width="0.5" style="isolation: isolate"/>
        <path id="路径_192" data-name="路径 192" d="M-472.838-527.082l31.584,31.936V-564.09A37.48,37.48,0,0,1-472.838-527.082Z" transform="translate(546.496 601.563)" fill="none" stroke="#fff" stroke-miterlimit="10" stroke-width="0.5" style="isolation: isolate"/>
        <path id="路径_193" data-name="路径 193" d="M-413.971-574.416h0v74.484l19.733,19.953h-19.733v35.9h0a65.17,65.17,0,0,0,65.17-65.171h0A65.17,65.17,0,0,0-413.971-574.416Z" transform="translate(519.213 606.348)" fill="none" stroke="#fff" stroke-miterlimit="10" stroke-width="0.5" style="isolation: isolate"/>
        <rect id="矩形_226" data-name="矩形 226" height="35.903" transform="translate(105.242 126.37)" fill="none" stroke="#fff" stroke-miterlimit="10" stroke-width="0.5" style="isolation: isolate"/>
        <path id="路径_194" data-name="路径 194" d="M-570.052-472.09h0v-22.156h-40.071v51.425h40.071v-29.266Z" transform="translate(610.123 569.193)" fill="none" stroke="#fff" stroke-miterlimit="10" stroke-width="0.5" style="isolation: isolate"/>
        <path id="路径_195" data-name="路径 195" d="M-535.438-494.248v22.157a65.051,65.051,0,0,1,3.865-22.157Z" transform="translate(575.509 569.193)" fill="none" stroke="#fff" stroke-miterlimit="10" stroke-width="0.5" style="isolation: isolate"/>
        <path id="路径_196" data-name="路径 196" d="M-535.438-452.951h0v0Z" transform="translate(575.509 550.054)" fill="none" stroke="#fff" stroke-miterlimit="10" stroke-width="0.5" style="isolation: isolate"/>
        <path id="路径_197" data-name="路径 197" d="M-501.851-495.113a37.712,37.712,0,0,1-5.888.464h-23.834a65.052,65.052,0,0,0-3.865,22.157v0a64.892,64.892,0,0,0,6.927,29.266h58.244v-19.953Z" transform="translate(575.509 569.594)" fill="none" stroke="#fff" stroke-miterlimit="10" stroke-width="0.5" style="isolation: isolate"/>
        <rect id="矩形_227" data-name="矩形 227" height="19.953" transform="translate(105.242 106.417)" fill="none" stroke="#fff" stroke-miterlimit="10" stroke-width="0.5" style="isolation: isolate"/>
        <path id="路径_198" data-name="路径 198" d="M-570.052-602h64.762a37.48,37.48,0,0,0-37.063-31.932h-67.769l40.071,40.519Z" transform="translate(610.123 633.932)" fill="none" stroke="#fff" stroke-miterlimit="10" stroke-width="0.5" style="isolation: isolate"/>
        <path id="路径_199" data-name="路径 199" d="M-535.438-565.829l14.919,15.085a65.037,65.037,0,0,1,49.844-23.67v0h-64.762Z" transform="translate(575.509 606.348)" fill="none" stroke="#fff" stroke-miterlimit="10" stroke-width="0.5" style="isolation: isolate"/>
        <path id="路径_200" data-name="路径 200" d="M-570.052-593.414l-40.071-40.518v74.945h40.071Z" transform="translate(610.123 633.932)" fill="none" stroke="#fff" stroke-miterlimit="10" stroke-width="0.5" style="isolation: isolate"/>
        <path id="路径_201" data-name="路径 201" d="M-504.4-510.955a37.709,37.709,0,0,0,5.888-.464L-517.181-530.3a65.086,65.086,0,0,0-11.054,19.341Z" transform="translate(572.171 585.9)" fill="none" stroke="#fff" stroke-miterlimit="10" stroke-width="0.5" style="isolation: isolate"/>
      </g>
    </g>
    <path id="路径_202" data-name="路径 202" d="M-485.149-507.562l-51.316-51.889a37.48,37.48,0,0,0,31.584-37.008h0a37.473,37.473,0,0,0-37.472-37.472h-67.769v126.37" transform="translate(610.123 633.932)" fill="none" stroke="#fff" stroke-miterlimit="10" stroke-width="1.5"/>
    <path id="路径_203" data-name="路径 203" d="M-470.267-574.416h-65.171v65.17h0v65.17h65.171a65.17,65.17,0,0,0,65.17-65.171h0A65.17,65.17,0,0,0-470.267-574.416Z" transform="translate(575.509 606.348)" fill="none" stroke="#fff" stroke-miterlimit="10" stroke-width="1.5"/>
    <line id="直线_21" data-name="直线 21" x2="181.096" y2="183.118" transform="translate(0 0)" fill="none" stroke="#fff" stroke-miterlimit="10" stroke-width="0.5"/>
  </g>
</svg>
